<?xml version="1.0" encoding="UTF-8"?>
<svg width="100" height="100" viewBox="0 0 100 100" fill="none" xmlns="http://www.w3.org/2000/svg">
  <defs>
    <!-- 橙色圆底渐变 -->
    <linearGradient id="coinGradient" x1="0" y1="0" x2="100" y2="100" gradientUnits="userSpaceOnUse">
      <stop offset="0%" stop-color="#FFAD33"/>
      <stop offset="100%" stop-color="#F7931A"/>
    </linearGradient>
    <!-- 轻微阴影提升立体感（部分浏览器可能忽略 filter） -->
    <filter id="shadow" x="-20%" y="-20%" width="140%" height="140%">
      <feDropShadow dx="1.5" dy="3" stdDeviation="2" flood-opacity="0.18"/>
    </filter>
  </defs>

  <!-- 圆形底座 -->
  <circle cx="50" cy="50" r="46" fill="url(#coinGradient)" filter="url(#shadow)"/>

  <!-- 比特币符号（白色，略微旋转） -->
  <g transform="translate(50,50) rotate(14) translate(-50,-50)">
    <path d="M68.5 41.6C69.9 36.3 67.2 32.7 60.1 30.6L62.4 21.3L56.7 19.9L54.5 29.2C53 28.8 51.5 28.5 50 28.1L52.3 18.8L46.6 17.4L44.3 26.7C43.1 26.4 41.9 26.1 40.7 25.8L40.7 25.7L32.8 23.7L31.3 29.8C31.3 29.8 35.6 30.8 35.5 30.9C37.8 31.4 38.2 32.9 38.2 33.9L35.6 44.4C35.8 44.4 35.9 44.5 36.1 44.5C35.9 44.5 35.8 44.5 35.6 44.4L32 59C31.5 60.3 30.2 60.8 28.6 60.4C28.7 60.5 24.4 59.4 24.4 59.4L21.5 66.2L28.9 68.1C31 68.6 33.1 69.1 35.2 69.6L32.9 79L38.6 80.4L40.9 71C42.4 71.4 43.9 71.8 45.4 72.2L43.1 81.6L48.8 83L51.1 73.6C60.7 75.4 68 74.4 70.3 65.4C72.1 58.2 70.2 54.3 66.3 52.1C69.1 51.4 71.2 49.3 72.1 45.3ZM60.8 62.1C59.2 68.5 48.3 65.6 44 64.5L46.2 55.6C50.5 56.7 62.4 55.7 60.8 62.1ZM62.7 42.6C61.3 48.3 51.8 45.9 48 45L49.9 37.1C53.7 38.1 64.1 36.9 62.7 42.6Z" fill="white"/>
  </g>
</svg>
